<?xml version="1.0" standalone="no"?><!DOCTYPE svg PUBLIC "-//W3C//DTD SVG 1.1//EN" "http://www.w3.org/Graphics/SVG/1.1/DTD/svg11.dtd"><svg t="1620147514198" class="icon" viewBox="0 0 1024 1024" version="1.1" xmlns="http://www.w3.org/2000/svg" p-id="19768" xmlns:xlink="http://www.w3.org/1999/xlink" width="200" height="200"><defs><style type="text/css"></style></defs><path d="M512 192c-84.736 0-158.4 39.616-211.008 98.016C296.64 289.472 292.736 288 288 288c-70.4 0-128 57.6-128 128-55.36 33.76-96 90.752-96 160 0 105.6 86.4 192 192 192h160v-64H256c-71.008 0-128-56.992-128-128a128.224 128.224 0 0 1 78.016-118.016l21.984-8.96-3.008-24C224.352 419.712 224 416.704 224 416a63.488 63.488 0 0 1 79.008-62.016l20 5.024 12-16A224.256 224.256 0 0 1 512 256c104.864 0 192.384 72.128 216.992 168.992l6.016 24.992 26.976-0.96c6.752-0.384 8.256-1.024 6.016-1.024 71.008 0 128 56.992 128 128 0 71.008-56.992 128-128 128h-160v64h160c105.6 0 192-86.4 192-192 0-100.992-79.616-181.888-179.008-188.992C741.888 274.368 637.632 192 512 192z m-32 384v256h-96l128 128 128-128h-96v-256z" p-id="19769"></path></svg>