<?xml version="1.0" standalone="no"?><!DOCTYPE svg PUBLIC "-//W3C//DTD SVG 1.1//EN" "http://www.w3.org/Graphics/SVG/1.1/DTD/svg11.dtd"><svg t="1620150643953" class="icon" viewBox="0 0 1024 1024" version="1.1" xmlns="http://www.w3.org/2000/svg" p-id="24865" xmlns:xlink="http://www.w3.org/1999/xlink" width="200" height="200"><defs><style type="text/css"></style></defs><path d="M512 85.333333a426.666667 426.666667 0 1 0 426.666667 426.666667A426.666667 426.666667 0 0 0 512 85.333333z m0 768a341.333333 341.333333 0 1 1 341.333333-341.333333 341.333333 341.333333 0 0 1-341.333333 341.333333z m19.626667-587.093333A21.76 21.76 0 0 0 512 256a21.76 21.76 0 0 0-18.346667 10.24l-145.92 236.8a11.093333 11.093333 0 0 0 3.84 15.36L501.76 597.333333a21.76 21.76 0 0 0 20.48 0l150.186667-80.64a11.093333 11.093333 0 0 0 3.84-15.36z m-9.386667 405.333333a21.76 21.76 0 0 1-20.48 0L362.24 597.333333a3.84 3.84 0 0 0-5.546667 0 4.693333 4.693333 0 0 0 0 5.546667l135.68 157.866667a21.333333 21.333333 0 0 0 16.213334 7.253333h6.826666a21.333333 21.333333 0 0 0 16.213334-7.253333l135.68-157.866667a4.693333 4.693333 0 0 0 0-5.546667 3.84 3.84 0 0 0-5.546667 0z" p-id="24866"></path></svg>