<?xml version="1.0" standalone="no"?><!DOCTYPE svg PUBLIC "-//W3C//DTD SVG 1.1//EN" "http://www.w3.org/Graphics/SVG/1.1/DTD/svg11.dtd"><svg t="1620147572580" class="icon" viewBox="0 0 1024 1024" version="1.1" xmlns="http://www.w3.org/2000/svg" p-id="19997" xmlns:xlink="http://www.w3.org/1999/xlink" width="200" height="200"><defs><style type="text/css"></style></defs><path d="M320 64v224h64V128h64v32h64V128h288v32h64V128h64v384h-64v-32h-64v96h192V64H320z m128 160v64h64V224h-64z m352 0v64h64V224h-64zM64 352v576h672V352H64z m736 0v64h64v-64h-64zM128 416h544v312.992l-83.008-82.976-22.976-22.016-90.016 90.016L339.008 576l-22.016-23.008L128 742.016V416z m368 64a48 48 0 1 0-0.032 95.968A48 48 0 0 0 496 480z m-179.072 164l160 160 22.08-23.008 67.008-66.976L672 820V864H128v-31.008l188.928-188.992z" p-id="19998"></path></svg>