<?xml version="1.0" standalone="no"?><!DOCTYPE svg PUBLIC "-//W3C//DTD SVG 1.1//EN" "http://www.w3.org/Graphics/SVG/1.1/DTD/svg11.dtd"><svg t="1620147649095" class="icon" viewBox="0 0 1024 1024" version="1.1" xmlns="http://www.w3.org/2000/svg" p-id="20501" xmlns:xlink="http://www.w3.org/1999/xlink" width="200" height="200"><defs><style type="text/css"></style></defs><path d="M628 289.6c-28.384 0-56.128 5.664-80.512 15.136-9.504 3.648-12.128 7.36-12.128 14.752v399.776c0 7.744 6.016 13.76 13.504 14.496h349.12A125.44 125.44 0 0 0 1024 608.384a126.048 126.048 0 0 0-126.016-126.016c-17.248 0-33.6 3.52-48.608 9.888a222.336 222.336 0 0 0-221.376-202.624z m-118.4 29.536c-3.36 0-6.336 1.248-8.736 3.232a13.632 13.632 0 0 0-5.12 10.624v1.376l-5.76 282.368 2.88 52.16 2.88 50.88c0.128 7.488 6.24 13.728 13.888 13.728a14.08 14.08 0 0 0 13.856-13.888l6.144-102.88-6.144-283.744a14.496 14.496 0 0 0-6.848-11.84 13.76 13.76 0 0 0-7.04-2.016z m-42.976 24.48a12.16 12.16 0 0 0-7.008 2.144 12.704 12.704 0 0 0-5.984 10.88v2.368l-4.896 257.6 4.896 104.64v0.384a13.216 13.216 0 0 0 12.992 12.48c3.52 0 6.752-1.472 9.12-3.84a13.856 13.856 0 0 0 3.872-9.152l0.512-10.368 4.992-94.112-5.504-260.16a13.44 13.44 0 0 0-12.992-12.864z m-128.64 29.888c-5.6 0-10.24 4.48-10.368 10.24l-6.496 232.896 6.496 106.88c0.128 5.76 4.768 10.24 10.4 10.24 5.6 0 10.112-4.48 10.368-10.24l7.232-106.88-7.232-232.896a10.496 10.496 0 0 0-10.4-10.24z m42.528 5.12a11.264 11.264 0 0 0-11.264 11.136l-5.984 226.88 5.984 105.856c0.128 6.24 5.12 11.136 11.264 11.136a11.328 11.328 0 0 0 11.232-11.136l6.624-105.856-6.624-226.88a11.264 11.264 0 0 0-11.232-11.136z m-84.768 3.36c-5.12 0-9.248 4.16-9.504 9.376l-6.976 225.28 6.976 107.616a9.632 9.632 0 0 0 9.504 9.376c5.12 0 9.28-4.16 9.504-9.504l7.872-107.52-7.872-225.248a9.632 9.632 0 0 0-9.504-9.376z m127.616 4.032a12.096 12.096 0 0 0-12.096 11.968l-5.376 218.656 5.376 105.248a12.096 12.096 0 0 0 24.224-0.128l6.144-105.12-6.144-218.624a12.096 12.096 0 0 0-12.128-12.032z m-170.112 14.72a8.704 8.704 0 0 0-8.64 8.512l-7.488 207.872 7.52 108.768a8.704 8.704 0 0 0 8.64 8.48 8.768 8.768 0 0 0 8.608-8.48l8.48-108.64-8.48-208a8.768 8.768 0 0 0-8.64-8.512z m-40.864 39.04a7.84 7.84 0 0 0-7.744 7.584l-8 169.28 8 109.248c0.224 4.224 3.616 7.744 7.744 7.744s7.488-3.52 7.744-7.744l8.992-109.248-8.992-169.28a7.936 7.936 0 0 0-7.744-7.616zM130.24 498.464c-3.104 0-5.76 2.496-5.984 6.016l-8.992 112 8.96 108.48c0.288 3.392 2.88 5.888 6.016 5.888s5.76-2.496 6.016-5.888l10.24-108.48-10.24-112.128a6.144 6.144 0 0 0-6.016-5.888z m-40.48 3.872c-2.752 0-4.896 2.144-5.12 4.992l-9.632 109.12 9.6 105.152c0.256 2.88 2.4 4.992 5.12 4.992 2.656 0 4.8-2.112 5.12-4.992l10.784-105.12-10.752-109.12c-0.384-2.88-2.496-5.024-5.12-5.024z m81.376 3.392a6.976 6.976 0 0 0-6.88 6.72l-8.512 104 8.512 109.408c0.256 3.84 3.232 6.72 6.88 6.72 3.616 0 6.624-2.88 6.88-6.72l9.6-109.376-9.6-104a6.976 6.976 0 0 0-6.88-6.752z m-121.632 14.624c-2.24 0-4 1.728-4.384 4.128l-9.984 92 9.984 89.856c0.384 2.496 2.144 4.256 4.384 4.256 2.112 0 3.872-1.76 4.256-4.128l11.36-89.984-11.36-92c-0.384-2.4-2.144-4.16-4.256-4.16zM11.616 555.616c-2.112 0-3.84 1.632-4.128 4L0 616.512l7.488 55.872c0.256 2.368 2.016 4 4.16 4 1.984 0 3.712-1.632 3.968-3.872l8.896-56-8.896-56.896c-0.256-2.368-1.984-4-4-4z" p-id="20502"></path></svg>